<?xml version="1.0" encoding="UTF-8"?>
<svg id="Layer_1" data-name="Layer 1" xmlns="http://www.w3.org/2000/svg" viewBox="0 0 560.6 533.5">
  <defs>
    <style>
      .cls-1 {
        fill: #231f20;
      }

      .cls-2 {
        fill: none;
        stroke: #8a8c8e;
        stroke-width: 3.86px;
      }

      .cls-3 {
        fill: #8a8c8e;
      }

      .cls-4 {
        fill: #666769;
      }
    </style>
  </defs>
  <path class="cls-4" d="M.13,239.99c1.78-4.29,4.99-7.84,9.16-9.93,2.32-1.16,4.79-1.93,7.38-2.4,1.55-.27,3.09-.39,4.6-.39.77,0,1.51,0,2.28.08,5.45.46,10.36,3.21,13.6,7.38h31.96c-.58-2.82-.54-5.8.23-8.7.97-3.71,2.32-7.27,4.02-10.94.81-1.86,1.97-3.71,3.32-5.37v-.15c-.08-1.12-.12-2.2-.12-3.32,0-2.09.19-4.02.5-5.91.15-1.04.39-2.05.62-3.01-3.13-4.68-3.94-9.62-3.94-13.33.04-2.74.31-3.75.5-4.91.23-1.31.54-2.55.89-3.83.27-1.04.62-2.13.97-3.32.43-1.39.89-2.82,1.43-4.21,1.7-4.64,5.14-8.5,9.55-10.7,2.2-1.08,4.41-1.74,6.42-2.09,1.24-.19,2.63-.35,4.1-.35.31,0,1.31,0,2.78.15,3.56.46,6.84,1.89,9.58,4.06h17.35c3.21,0,6.45.35,9.78,1.2.81.19,1.62.46,2.4.73,1.51-1.51,3.21-2.82,5.14-3.75,2.13-1.04,4.33-1.7,6.26-2.05,1.24-.23,2.63-.35,4.1-.35.23,0,.85,0,1.74.08h.08c.97.08,1.93.23,2.86.43h0s.08,0,.15.04c2.82.66,5.37,1.93,7.54,3.67h10.43c3.25,0,6.61.35,10.36,1.43,1.16-1.2,2.43-2.28,3.83-3.17,4.33-2.63,8-3.05,10.59-3.21h1.62c2.43-.04,4.79.35,6.99,1.16h.08s.08,0,.12.04c.04,0,.08,0,.15.04h.04s.12.04.15.08h0c1.04.43,2.05.93,2.98,1.51h0s.04,0,.08.04c.04,0,.08.04.12.08h.04s.12.08.15.12h0c.77.5,1.55,1.12,2.24,1.74,1.28-1.04,2.67-1.97,4.21-2.67,3.48-1.51,4.33-1.39,5.26-1.62.62-.08,1-.15,1.35-.15h0c.77-.08,1.51-.12,2.24-.12.77,0,2.05,0,3.25.23.15,0,.39.08.81.12h.31c1.51.43,3.4.43,7.57,2.9,1.39-.85,2.86-1.51,4.41-1.97,4.06-1.08,5.14-.85,6.72-.93,1.28,0,2.36.12,3.21.19l.85.12c.5.12.81.08,2.82.66,1.89.58,3.63,1.43,5.22,2.51,1.47-.97,3.05-1.74,4.75-2.32,1.62-.5,2.36-.62,3.05-.77l.54-.08c.89-.15,2.16-.27,3.56-.27.97,0,1.66.04,1.93.08.97.12,1.89,0,5.37,1,.89.31,1.74.66,2.55,1.04,4.02-2.28,7.5-2.74,9.93-2.86h1.55c3.28-.08,6.42.7,9.2,2.13h0c.08,0,.12.08.19.08h.04s.08.04.15.08h.08s.08.04.12.08h.08s.08.04.12.08h.08l.15.08h.04s.12.12.15.12h0c1.97,1.2,3.71,2.74,5.14,4.52.77.27,1.55.54,2.32.81,2.05.77,4.21,1.74,6.61,3.32,2.63,1.74,5.45,4.41,7.46,8,2.32,4.06,3.05,8.35,3.05,11.67-.08,5.26-1.04,9.16-2.28,13.83-.31,1.16-.7,2.32-1.08,3.52h7.19c5.06,0,10.01.5,14.88,1.7,5.41,1.31,10.78,3.71,15.38,7.34.27.19.5.46.77.66.43-1.24.81-2.51,1.24-3.71,1.7-4.71,5.1-8.54,9.62-10.74,2.36-1.16,4.87-1.93,7.23-2.32,1.47-.27,3.05-.39,4.64-.39.46,0,1.28,0,2.32.12.27,0,.58.04.85.08h.23c3.4.5,6.45,1.86,9,3.79,0,0,.04,0,.08.04l.12.08c1.2.97,2.32,2.05,3.28,3.28h24.66c5.22,0,10.32.54,15.69,2.32,2.63.89,5.33,2.16,7.92,3.83,0-.08.04-.15.08-.23,1.7-4.64,5.1-8.42,9.51-10.67,2.43-1.2,4.99-2.01,7.27-2.36,1.51-.27,3.05-.43,4.68-.43.54,0,1.51,0,2.74.15,5.29.58,10.01,3.25,13.18,7.34h56.11c2.51-.08,6.99.62,11.21,3.48l.12-24.46.23-88.27-6.14,1.58.81,7.27-3.44.46-.54-3.9-3.28-2.09-19.83,5.56.89,6.53-3.67.08-.73-3.52-3.83-1.58-18.7,4.44,1.04,6.69-2.94.39-.54-3.67-4.14-2.01-3.63.85v.19h-.19c-.15,0-.23-.04-.35-.12l-9.93,2.32-4.25,1,.62,6.84-2.94.81-.73-4.37-3.67-1.66-17.2,3.75.58,7.19h-.08c-.31-.12-.62-.23-1-.27,0,.12,0,.23-.04.39h0l-1.58.12v-3.52l-4.21-1.97-3.32.89-2.94.46-1.74.08-2.47.89-6.69,1.51,1.28,15.77,1.78,24.31.19,2.82.62,8.12.15,1.93.89,12.21-15.54,2.55-7.73.46-2.24-.46-1.08-8.73h0s.23-.35.31-.58c-.12-.19-.27-.35-.43-.43h0l-.81-6.76-.31-2.59-.35-2.9-.15-1.08-.15-2.28-.73-11.67-7.46-1.66-2.13-.46-1.74-.39-1.62.66-.62-1.28-12.1-2.94-.35-.08-.66.81-2.09.12v-1.24l-4.17-.93-1.51-.35-4.99-1.12-6.96,2.36-1.24.43-1.93.66v1.39l-2.71-.43-2.67.73-1.39.39-4.79,1.31.46,10.86h0c-.31,0-.77,0-1.2.08v-.15l-6.49-1.31-.93-14.45-.27-11.63s-.5-.31,1.12-.73c1.62-.43.97-3.28,1.62-3.86,1.89-.77.81-3.32.81-3.32,0,0,1.7-.31,2.71-1.08s.27-2.59.27-2.59c0,0-.15-.31,1.31-.77,1.47-.46.97-4.02.97-4.02v-1l-.08-3.17v-.58l-.04-1.35-.15-7.54-4.17-2.4-5.56-4.33-.43-9.31-.23-4.83-.15-3.4-.12-3.01-18.74-6.96-3.48,2.05-.27-3.48-2.55-.77-2.16-.66-9.55-2.94-3.94-1.74-.89.7-.19.15-1.16-.19s-.81.39-1.55.73c-.5.23-.97.46-1,.5-.15.12-.62.15-.62.15l-.73.31-1.47.62-.77.31-.85.35-.39.46-.12.15-1.31-.19-.46.23-.66.35-.46.23-.35.35h-.62l-.19.12-2.74.89h0l.04,3.44-1.12-.46-.89-.39s-.27-.27-.27-.58c-.39-.04-.73-.04-1.04,0h0l-.7-.31-1.24.35v-11.94s.43-.5.66-2.24c.27-1.74-.77-2.74-.77-2.74,0,0,.19-1.39.43-2.36.19-.97-.15-2.4-.15-2.4,0,0-.5-6.65-.19-6.99.31-.35.73-1.16.62-2.05-.04-.46-.23-.97-.39-1.31-.15-.31-.27-.5-.27-.5,0,0-.15-2.24.12-2.78,0-.04.04-.08.08-.08.35-.15.62-1.78-.04-3.05-.12-.19-.19-.35-.23-.46,0-.89.19-3.71.77-5.33.66-1.93-1.08-2.59-1.08-2.59v-1.93l-.08-1.93v-1.43s-.08-1.08-.66-2.2c-.08-.12-.15-.23-.31-.39-1.24-1.12-5.14-2.59-5.14-2.59,0,0,0-1,.04-2.16v-3.05c0-.23-.04-.5-.08-.81-.23-1.47-.73-3.17-.73-3.17,0,0-.5-.73-.93-1.08-.15-.12-2.16-2.4-2.16-2.4l-1.7-2.24-.54-.58s-.35.19-.54.23v.31h-.58V.23s-.19-.08-.27-.12l-.35.46-5.22,6.45.43,4.95-.66.31v.85l.15,2.78-.81.39c-.58.08-1.24.43-1.82.85-.93.66-1.7,1.51-1.7,1.51,0,0-.66,2.32-1,6.18-2.32,2.16-.15,4.68-.15,4.68,0,0,2.32.85-.15,2.67-2.51,1.82,0,4.17,0,4.17,0,0,0,1.66.15,4.48s0,3.67,0,3.67v1.04c0,.77,0,1.89-.08,3.17-.08,3.59-.27,8.31-.58,9.12-.5,1.35.66,2.67.66,2.67v2.13l.23,14.14v3.21l.08.89-.23,2.51s.35,1.47-2.55,3.28c-.58.35-.97,1.74-1.2,3.75-.66,5.26-.46,14.72-.19,21.14h0c-.23.7-.31,1.58-.31,2.51.12.12.27.23.43.35h0c.12,2.28.19,3.71.19,3.71h-.08c-.27,0-1.04.04-2.01.12h0c-.62,0-1.31.08-2.01.12h-.19c-1.66.08-3.28.15-3.75.15-.15,0-.23,0-.27-.08-.31-.35,1.35-1.74,1.35-1.74,0,0-1.66-.46-3.94-1.08-.66-.15-1.31-.35-2.05-.54-.54-.15-1.12-.31-1.7-.46-2.78-.73-5.68-1.51-7.5-2.01-.5-.12-.93-.23-1.24-.31h-.04c-.35-.08-.7-.15-1-.15-1.16,0-1.97.58-2.43,1.12-.39.46-.58.85-.58.85l-.58-.93-.35-.54-1.62-2.55-3.13-.66-1.12-.23-2.01-.43-6.99-1.47-3.67-.77h-.27l-3.05,1.28-.27.12v.35l-.31,1.78-.39,2.63-.5-4.91-.19-1.93v-.5h-.15l-1.66-.39-1.74-.39-2.13-.46-9.35-2.09h-.04c-.27-.19-.54-.35-.85-.46-.04.08-.08.15-.12.23l-3.71-.81-3.67.35-.81,3.98h-.66v-5.8l-19.75-5.14-7.3,2.2-1.82,2.55-2.2-.39-.12.15s-.43-.19-.62-.31c0,.31.15.5.35.62l-1.78,2.09-1.82-.73-13.91,5.14-.27,2.55h-.23c-.19.23-.43.39-.7.54l-2.47-.54-12.44,5.84-2.94.39.39-9.16-4.56-.31-2.47-.15-2.51-.19h-.7l-9.12,4.44-1.43.7-3.56,1.74-2.16,1.04-3.94,1.93-3.01,1.47-1.66.81-7.34,3.59-1.7.85-4.87,2.4-1.82,16.81-2.55,1.47-1.47,4.02-.73-3.67-7.69,4.37-1.2,3.17-1.08-2.94-6.72,3.13-3.13,35.94-15.69,14.49-1.31,1.2-1.08,1-3.83,1.43-.31,18.09-.08,4.37s-.08,0-.15.04c-.04.39,0,.66.12.93l-.08,5.68s-.15.08-.23.15c-.12.81-.04,1.47.19,1.97l-.08,4.41-.04.31Z"/>
  <path class="cls-3" d="M126.04,189.21h-19.83c-.73,1.66-1.31,3.13-1.82,4.41-.46,1.28-.85,2.43-1.12,3.48-.27,1.04-.46,1.97-.58,2.86-.12.85-.15,1.7-.15,2.55,0,1.04.12,2.16.31,3.4.23,1.24.58,2.63,1.04,4.14.46,1.51,1.08,3.21,1.82,5.02.73,1.86,1.58,3.9,2.59,6.14v.39c-.27.81-.5,1.55-.73,2.28s-.43,1.43-.58,2.09c-.19.7-.35,1.39-.5,2.09-.15.7-.35,1.47-.54,2.28,0,.15-.12.23-.19.27-.12.04-.19.08-.31.08-.89-.04-2.09-.08-3.48-.19-1.43-.08-2.9-.12-4.41-.12-1.62,0-3.17.08-4.6.27-1.43.19-2.4.54-2.94,1.12-.39-.08-.73-.15-1.08-.31-.39-.15-.66-.35-.89-.58.62-2.28,1.58-4.91,2.9-7.84.19-.46.46-.89.81-1.24.35-.35.81-.66,1.43-.93.58-.27,1.35-.46,2.28-.62.93-.15,2.01-.27,3.32-.35-.66-2.05-1.2-3.83-1.58-5.26s-.66-2.71-.85-3.75-.31-1.93-.39-2.67c-.04-.73-.08-1.43-.08-2.05,0-.81.08-1.7.23-2.71s.46-2.16.81-3.48c.39-1.31.89-2.86,1.58-4.64.66-1.74,1.51-3.83,2.51-6.18-1.04,0-2.01-.12-2.98-.27s-1.78-.43-2.51-.81c-.73-.39-1.31-.93-1.78-1.58-.46-.66-.66-1.55-.66-2.59,0-.31.08-.77.19-1.39.12-.62.31-1.35.54-2.2s.5-1.78.81-2.86c.31-1.04.66-2.13,1.08-3.21.35-.15.7-.27,1.08-.35s.77-.08,1.16-.04c.43.97.89,1.74,1.39,2.28.46.54,1.04.97,1.66,1.24.62.27,1.35.46,2.2.54.81.08,1.82.12,2.94.12h21.14c1.82,0,3.48.19,4.99.58s2.78,1,3.83,1.89c1.08.89,1.89,2.05,2.43,3.44.58,1.43.85,3.13.85,5.18,0,1.51-.08,3.01-.27,4.48s-.27,3.01-.27,4.6c0,3.13.15,6.26.54,9.39.35,3.13.73,6.11,1.12,8.93.19,1.39.39,2.67.54,3.86.15,1.16.23,2.09.23,2.74s-.08,1.16-.19,1.51c-.15.39-.35.77-.66,1.16-.73.97-1.39,1.93-2.01,2.86-.62.97-1.2,1.93-1.78,2.94-.93.12-1.86.12-2.74,0-.12-.66-.19-1.55-.31-2.74s-.23-2.47-.31-3.86c-.12-1.39-.19-2.74-.27-4.1-.08-1.35-.12-2.55-.12-3.56,0-3.4,0-6.14.04-8.23,0-2.09.08-3.86.12-5.29,0-1.43.08-2.67.12-3.75s.12-2.24.12-3.56c0-1.16-.04-2.2-.23-3.13s-.58-1.7-1.16-2.28c-.58-.62-1.31-1.08-2.28-1.43s-2.16-.5-3.63-.5"/>
  <path class="cls-3" d="M155.33,173.9c.43.97.89,1.74,1.39,2.28.46.54,1.04.97,1.66,1.24s1.35.46,2.2.54c.81.08,1.82.12,2.94.12h14.26c2.13,0,3.9.23,5.29.73,1.43.46,2.55,1.16,3.36,2.01s1.39,1.86,1.74,3.01c.35,1.16.5,2.4.5,3.75,0,1.16,0,2.24-.12,3.25-.08,1-.15,2.01-.23,3.05-.08,1.04-.15,2.09-.23,3.21s-.12,2.32-.12,3.63v1.89c0,.89.04,1.93.12,3.05.04,1.16.12,2.36.23,3.67.12,1.31.23,2.55.46,3.79.19,1.2.43,2.32.73,3.28.27.97.66,1.74,1.08,2.28.54.66,1.2,1.12,2.01,1.31.81.23,1.86.31,3.13.31.12,0,.19.12.15.31-.54,1.7-1,3.32-1.43,4.83-.43,1.55-.85,3.13-1.24,4.83,0,.15-.12.23-.19.27-.12.04-.19.08-.31.08h-35.86c-.93,0-1.78.08-2.59.15-.81.08-1.55.23-2.28.43-.7.19-1.47.46-2.28.85-.35-.08-.73-.15-1.08-.31-.39-.15-.66-.35-.89-.62.27-1.12.66-2.43,1.12-3.86s1-2.94,1.62-4.41c.35-.93,1.08-1.7,2.13-2.28,1.08-.58,2.67-.89,4.83-.89h25.54c-.27-1.78-.46-3.52-.54-5.1-.12-1.58-.15-3.17-.15-4.75,0-1.24,0-2.51.08-3.86.04-1.31.12-2.63.19-3.9.08-1.28.15-2.43.19-3.56.04-1.12.08-2.09.08-2.86,0-.97-.12-1.86-.31-2.63-.23-.81-.62-1.47-1.2-2.05s-1.35-1-2.32-1.31-2.2-.46-3.71-.46h-15.42c-1.2,0-2.36-.04-3.52-.15-1.12-.12-2.13-.35-3.01-.7s-1.58-.89-2.13-1.58c-.54-.7-.81-1.62-.81-2.78,0-.31.04-.77.15-1.39.12-.62.31-1.35.5-2.2.23-.85.5-1.78.81-2.86.31-1.04.66-2.13,1.08-3.21.35-.15.7-.27,1.12-.35.39-.08.77-.08,1.16-.04"/>
  <path class="cls-3" d="M204.53,173.09c.15.89.35,1.62.66,2.2.31.58.73,1.04,1.31,1.43s1.31.77,2.2,1.08c.89.35,2.01.7,3.28,1.08,1.28.39,2.36.77,3.36,1.12.97.35,1.78.73,2.43,1.2s1.16.97,1.51,1.55c.31.58.5,1.28.5,2.13,0,2.01-.54,4.87-1.58,8.58s-2.71,8.27-4.99,13.68c-1.28-.27-2.4-.66-3.4-1.2.31-1.2.62-2.4.89-3.59s.5-2.32.7-3.4c.19-1.04.35-2.05.46-2.9.12-.89.15-1.58.15-2.16,0-.54-.08-1-.23-1.35-.15-.39-.39-.73-.73-1-.31-.31-.77-.58-1.31-.85-.54-.27-1.24-.54-2.01-.81-1.39-.46-2.67-.89-3.75-1.28-1.08-.39-2.01-.81-2.78-1.24-.73-.46-1.31-.97-1.7-1.55s-.58-1.31-.58-2.16c0-.58.12-1.28.31-2.16s.46-1.82.77-2.78c.31-.97.66-1.93,1.04-2.86.39-.93.77-1.74,1.12-2.43.27-.15.62-.27,1.08-.27h1.24"/>
  <path class="cls-3" d="M256.89,191.41c0-.31-.04-.58-.19-.81-.12-.23-.31-.46-.58-.66-.27-.19-.66-.43-1.08-.62-.46-.23-1.04-.46-1.74-.77-.66-.31-1.28-.58-1.86-.85-.58-.27-1.12-.58-1.55-.93-.46-.35-.81-.73-1.04-1.2s-.39-1-.39-1.62c0-.54.12-1.24.35-2.09s.54-1.74.93-2.71c.39-.97.81-1.89,1.28-2.86s.93-1.78,1.39-2.51c.19-.08.58-.12,1.08-.12.27,0,.5,0,.73.04.23,0,.39.08.46.12.12.58.19,1.04.31,1.47.12.39.35.81.73,1.16.39.39.93.77,1.66,1.16.73.39,1.78.85,3.09,1.39,1.51.58,2.59,1.08,3.28,1.58.7.46,1.08,1.12,1.08,1.86,0,1.35-.23,2.94-.7,4.75-.46,1.86-1.12,3.86-1.93,6.03-.81,2.16-1.78,4.44-2.9,6.84s-2.36,4.79-3.63,7.23c-1.28,2.4-2.67,4.79-4.1,7.07-1.47,2.32-2.9,4.48-4.37,6.45,1.7-.23,3.59-.54,5.64-.93,2.05-.39,4.1-.81,6.11-1.28s3.86-1,5.6-1.55c1.74-.54,3.13-1.08,4.17-1.58,1.08-.54,2.2-1.43,3.28-2.71,1.08-1.28,2.13-2.74,3.13-4.37.97-1.62,1.89-3.32,2.74-5.1.85-1.78,1.58-3.44,2.2-5.02.62-1.58,1.12-2.9,1.43-4.06.35-1.16.54-1.89.54-2.2,0-.58-.27-1.08-.73-1.51-.5-.46-1.51-.97-2.98-1.51-.77-.27-1.47-.54-2.16-.81-.66-.27-1.24-.58-1.74-.93s-.89-.77-1.16-1.24c-.27-.46-.43-1.04-.43-1.7,0-.73.12-1.55.31-2.43s.5-1.82.85-2.74.73-1.86,1.12-2.74c.39-.89.77-1.7,1.16-2.43.12,0,.23-.08.46-.12.19,0,.43-.04.66-.04h.7c.23,0,.39,0,.5.08.12.73.31,1.31.58,1.74.23.43.62.81,1.08,1.16s1.04.62,1.78.89c.7.27,1.62.58,2.67.93,1.7.62,2.98,1.24,3.86,1.93s1.31,1.47,1.31,2.36c0,1.12-.31,2.86-.97,5.26-.62,2.36-1.47,5.02-2.55,8-1.08,2.98-2.28,6.03-3.71,9.27-1.39,3.21-2.86,6.22-4.33,9-1.51,2.78-3.01,5.22-4.52,7.23-1.55,2.01-2.98,3.36-4.29,3.98-1.2.58-2.63,1.12-4.29,1.66-1.66.54-3.44,1.08-5.29,1.55-1.89.46-3.79.93-5.72,1.35-1.93.43-3.75.77-5.45,1.08s-3.21.54-4.56.7c-1.31.15-2.32.27-2.98.27-.43-.08-.89-.15-1.35-.31-.46-.15-.85-.31-1.2-.5-1.16-3.56-2.16-6.84-2.98-9.82-.85-2.98-1.51-5.72-2.05-8.27-.54-2.55-.93-4.91-1.16-7.03-.23-2.16-.39-4.17-.39-6.07,0-1.55.15-2.98.46-4.33s.7-2.74,1.16-4.14c.12-.39.19-.66.15-.93,0-.23-.15-.5-.39-.73s-.58-.46-1.04-.73-1.04-.58-1.74-1c-.85-.43-1.62-.85-2.28-1.24-.7-.39-1.31-.77-1.78-1.16-.5-.39-.89-.85-1.16-1.31-.27-.46-.43-1-.43-1.58,0-.54.15-1.2.46-2.01s.7-1.66,1.16-2.55.97-1.78,1.51-2.71c.54-.89,1.08-1.7,1.62-2.4.08,0,.19-.04.43-.08h.7c.23,0,.5.08.7.12.23,0,.39.08.46.15.08.54.15.97.31,1.31.12.35.39.66.77,1,.39.31.93.66,1.66,1.04.73.39,1.74.89,3.05,1.47,2.86,1.35,4.29,2.67,4.29,3.9,0,.54-.15,1.16-.46,1.93-.31.73-.7,1.58-1.16,2.55-.31.66-.62,1.43-1,2.24-.35.81-.7,1.74-1,2.67-.31.97-.54,1.93-.77,2.94s-.31,2.05-.31,3.13c0,1.51.19,3.13.58,4.83.39,1.74.85,3.52,1.43,5.33s1.24,3.67,1.93,5.49,1.39,3.59,2.05,5.29c1.08-1.47,2.2-3.05,3.28-4.75s2.16-3.44,3.13-5.18c1-1.78,1.93-3.52,2.78-5.26.85-1.74,1.58-3.36,2.24-4.91.62-1.55,1.12-2.98,1.51-4.25.35-1.28.54-2.32.54-3.13"/>
  <path class="cls-3" d="M299.17,173.09c.12.89.35,1.62.66,2.2.31.58.73,1.04,1.31,1.43s1.31.77,2.24,1.08,2.01.7,3.28,1.08c1.28.39,2.36.77,3.36,1.12.97.35,1.78.73,2.43,1.2s1.16.97,1.51,1.55c.35.58.5,1.28.5,2.13,0,2.01-.54,4.87-1.58,8.58s-2.71,8.27-4.95,13.68c-1.28-.27-2.4-.66-3.4-1.2.31-1.2.62-2.4.89-3.59s.5-2.32.7-3.4c.19-1.04.35-2.05.46-2.9.12-.89.15-1.58.15-2.16,0-.54-.08-1-.23-1.35-.15-.39-.39-.73-.73-1-.35-.31-.77-.58-1.31-.85-.54-.27-1.24-.54-2.01-.81-1.39-.46-2.63-.89-3.75-1.28-1.12-.39-2.01-.81-2.78-1.24-.77-.46-1.31-.97-1.7-1.55s-.58-1.31-.58-2.16c0-.58.12-1.28.31-2.16s.46-1.82.77-2.78c.31-.97.66-1.93,1.04-2.86.39-.93.77-1.74,1.12-2.43.27-.15.62-.27,1.08-.27h1.24"/>
  <path class="cls-1" d="M296.81,214.13c.77,1.7,1.58,3.05,2.43,4.02s1.86,1.7,2.98,2.2c1.12.5,2.43.81,3.9.97s3.21.23,5.26.23h26.24c3.71,0,7.15.39,10.28,1.16,3.13.77,5.84,2.05,8.12,3.83s4.02,4.06,5.29,6.92c1.24,2.82,1.86,6.34,1.86,10.47,0,1.7-.08,3.44-.27,5.22-.12,1.35-.23,2.86-.31,4.48s-.12,3.67-.12,6.14c0,5.22.31,10.32.93,15.38s1.28,9.97,2.01,14.76c.35,2.47.73,4.79,1.12,6.92.39,2.13.58,3.79.58,4.99s-.12,1.97-.35,2.55-.66,1.24-1.24,1.97c-1.31,1.58-2.63,3.32-3.98,5.18s-2.59,3.59-3.63,5.18c-1.66.15-3.28.15-4.87,0-.12-1.12-.23-2.74-.35-4.87-.12-2.13-.23-4.41-.35-6.88-.12-2.43-.19-4.91-.27-7.3-.04-2.43-.08-4.52-.08-6.3,0-5.56,0-10.05.08-13.53.04-3.44.15-6.34.23-8.7.08-2.32.19-4.37.31-6.07s.19-3.63.27-5.76c.12-5.14-1.2-9.08-3.9-11.83s-7.23-4.14-13.49-4.14h-30.92c-2.13,0-4.17-.08-6.14-.23s-3.71-.5-5.22-1.12c-1.51-.58-2.71-1.51-3.63-2.71s-1.39-2.86-1.39-4.91c0-.54.12-1.35.35-2.51s.54-2.51.97-4.1c.43-1.55.93-3.28,1.51-5.18.58-1.89,1.24-3.83,1.97-5.76.58-.31,1.24-.5,1.93-.62s1.39-.15,2.05-.08"/>
  <path class="cls-1" d="M391.99,214.13c.77,1.7,1.58,3.05,2.43,4.02s1.86,1.7,2.98,2.2c1.12.5,2.43.81,3.9.97s3.21.23,5.22.23h25.35c3.79,0,6.92.43,9.43,1.28s4.48,2.05,5.95,3.56c1.43,1.51,2.47,3.28,3.05,5.37.58,2.09.89,4.29.89,6.65,0,2.09-.08,3.98-.19,5.76s-.23,3.56-.39,5.41c-.15,1.82-.27,3.71-.39,5.68-.12,1.97-.15,4.1-.15,6.49,0,.66,0,1.78.04,3.36,0,1.58.08,3.4.19,5.45.08,2.05.23,4.21.39,6.49.19,2.32.46,4.56.81,6.69.35,2.16.77,4.1,1.28,5.84.5,1.74,1.16,3.09,1.89,4.02.97,1.2,2.13,1.97,3.59,2.36,1.43.39,3.28.58,5.53.58.23,0,.31.19.27.54-.93,3.01-1.82,5.87-2.55,8.62-.77,2.71-1.51,5.56-2.2,8.62-.04.23-.15.39-.35.5-.19.08-.35.12-.54.12h-58.05c-2.13,0-4.02,0-5.64.04-1.62,0-3.13.12-4.56.27s-2.78.39-4.02.77c-1.28.35-2.63.85-4.02,1.51-.66-.12-1.31-.31-1.93-.54-.66-.23-1.2-.58-1.58-1.08.46-2.01,1.12-4.29,2.01-6.88.85-2.59,1.82-5.18,2.9-7.84.66-1.66,1.93-3.01,3.83-4.06,1.89-1.08,4.75-1.58,8.58-1.58h45.41c-.46-3.21-.81-6.22-.97-9.04-.19-2.82-.27-5.64-.27-8.42,0-2.16.04-4.44.15-6.84.08-2.36.19-4.68.35-6.92.15-2.24.27-4.37.35-6.34s.12-3.67.12-5.1c0-1.7-.19-3.28-.58-4.71s-1.08-2.63-2.13-3.63-2.4-1.78-4.14-2.36c-1.7-.54-3.9-.85-6.57-.85h-27.4c-2.13,0-4.21-.08-6.22-.27-2.01-.15-3.79-.58-5.37-1.24s-2.82-1.58-3.75-2.82c-.97-1.24-1.43-2.9-1.43-4.99,0-.54.12-1.35.31-2.47s.5-2.43.93-3.94c.43-1.51.89-3.21,1.47-5.06.54-1.86,1.2-3.75,1.89-5.72.58-.31,1.24-.5,1.93-.62s1.39-.15,2.05-.08"/>
  <path class="cls-1" d="M544.57,240.3c-4.25,0-7.23,1.08-8.97,3.21-1.7,2.13-2.59,5.33-2.59,9.66,0,3.01.08,6.11.23,9.27s.35,6.3.62,9.43c.27,3.13.58,6.22.93,9.27s.73,5.91,1.16,8.66c.35,2.43.7,4.79,1,7.15.31,2.32.5,4.02.5,5.02,0,1.66-.54,3.13-1.58,4.44-1.31,1.66-2.59,3.36-3.86,5.14s-2.47,3.52-3.59,5.22c-1.66.15-3.28.15-4.87,0-.43-3.79-.7-8.08-.85-12.91s-.23-9.89-.23-15.19c0-4.6.04-9.24.15-13.91.08-4.68.19-9.08.35-13.29.15-4.17.31-8.04.5-11.48.19-3.44.35-6.3.54-8.54h-38.14c-2.13,0-4.21-.08-6.22-.27-2.01-.15-3.79-.58-5.37-1.24s-2.82-1.58-3.75-2.82c-.97-1.24-1.43-2.9-1.43-4.99,0-.54.12-1.35.31-2.47s.5-2.43.93-3.94c.43-1.51.89-3.21,1.47-5.06s1.2-3.75,1.93-5.72c.58-.31,1.24-.5,1.93-.62s1.39-.15,2.05-.08c.77,1.7,1.58,3.05,2.43,4.02s1.86,1.7,2.98,2.2c1.12.5,2.4.81,3.9.97,1.47.15,3.21.23,5.22.23h56.81c.35,0,.5.19.43.62-.89,3.25-1.66,6.22-2.32,8.85-.66,2.67-1.31,5.53-1.93,8.58-.08.43-.31.62-.7.62"/>
  <path class="cls-1" d="M21.93,246.63c.77,1.7,1.58,3.05,2.43,4.02s1.85,1.7,2.98,2.2c1.12.5,2.43.81,3.9.97,1.47.15,3.21.23,5.22.23h36.44c3.71,0,6.84.27,9.35.81,2.51.54,4.52,1.31,6.03,2.36s2.55,2.36,3.21,3.9c.62,1.58.93,3.4.93,5.45s-.31,4.21-.93,6.61-1.28,5.02-2.01,7.84c0,8.73.39,16.54,1.16,23.34.77,6.84,1.51,12.83,2.2,18.05.35,2.47.66,4.75.97,6.84.31,2.09.43,3.71.43,4.87s-.12,2.01-.35,2.67-.62,1.31-1.16,2.05c-1.24,1.7-2.43,3.44-3.56,5.14-1.12,1.7-2.2,3.44-3.21,5.22-1.66.15-3.28.15-4.87,0-.19-1.12-.39-2.74-.58-4.87-.19-2.13-.39-4.41-.58-6.88-.19-2.43-.31-4.91-.46-7.3-.12-2.43-.19-4.52-.19-6.3,0-5.14,0-9.58.04-13.29,0-3.71.08-6.88.15-9.51.04-2.63.12-4.83.19-6.61.04-1.78.12-3.32.19-4.6.04-1.58.12-3.01.12-4.25s.04-2.67.04-4.25c0-1.43-.08-2.59-.27-3.56s-.58-1.7-1.2-2.32c-.62-.58-1.55-1-2.78-1.24s-2.9-.35-4.99-.35H30c-2.13,0-4.21-.08-6.22-.27-2.01-.15-3.79-.58-5.37-1.24s-2.82-1.58-3.75-2.82-1.43-2.9-1.43-4.95c0-.54.12-1.35.31-2.47s.5-2.43.93-3.94c.43-1.51.89-3.21,1.47-5.06.54-1.86,1.2-3.79,1.89-5.72.58-.31,1.24-.5,1.93-.62s1.39-.15,2.05-.08M32.67,297.41c-.43,1.47-.77,2.78-1.08,3.9s-.54,2.2-.7,3.21c-.19,1-.31,2.01-.39,3.01s-.15,2.09-.23,3.28l-.7,27.28c0,.54-.04,1.04-.12,1.51-.08.46-.35.85-.77,1.16-.93.7-1.93,1.47-2.94,2.24-1,.81-1.97,1.58-2.9,2.32s-1.78,1.43-2.55,2.13c-.81.66-1.47,1.24-2.01,1.74-1.47.15-2.94.15-4.33,0l2.74-33.7c.23-3.01.85-5.76,1.82-8.27.97-2.51,2.13-4.44,3.4-5.8.66-.7,1.58-1.58,2.78-2.63s2.51-1.97,3.86-2.78c.58.12,1.31.31,2.13.54.81.23,1.47.54,1.97.89v-.04Z"/>
  <path class="cls-1" d="M113.67,246.63c.77,1.7,1.58,3.05,2.43,4.02s1.85,1.7,2.98,2.2c1.12.5,2.43.81,3.9.97s3.21.23,5.22.23h26.24c3.71,0,7.15.39,10.28,1.16,3.13.77,5.84,2.05,8.12,3.83,2.28,1.78,4.02,4.06,5.29,6.92,1.24,2.82,1.86,6.34,1.86,10.47,0,1.7-.08,3.48-.27,5.22-.12,1.35-.23,2.86-.31,4.48s-.15,3.67-.15,6.14c0,5.22.31,10.32.93,15.38s1.28,9.97,2.01,14.76c.35,2.47.73,4.79,1.12,6.92s.58,3.79.58,4.99-.12,1.97-.35,2.59c-.23.58-.66,1.24-1.24,1.93-1.31,1.58-2.63,3.32-3.98,5.18-1.35,1.86-2.55,3.59-3.63,5.18-1.66.15-3.28.15-4.87,0-.12-1.12-.23-2.74-.35-4.87-.12-2.13-.23-4.41-.35-6.88-.12-2.43-.19-4.91-.27-7.3-.04-2.43-.08-4.52-.08-6.3,0-5.56,0-10.05.08-13.53.04-3.44.12-6.34.23-8.7.08-2.32.19-4.37.31-6.07s.19-3.63.27-5.76c.12-5.14-1.2-9.08-3.9-11.83s-7.23-4.14-13.49-4.14h-30.95c-2.13,0-4.17-.08-6.14-.23s-3.71-.5-5.22-1.12c-1.51-.58-2.71-1.51-3.63-2.71s-1.35-2.86-1.35-4.91c0-.54.12-1.35.35-2.51s.54-2.51.97-4.1c.43-1.55.93-3.28,1.51-5.18s1.24-3.83,1.97-5.76c.58-.31,1.24-.5,1.93-.62s1.39-.15,2.05-.08"/>
  <path class="cls-1" d="M217.12,349.2c-.12-1.2-.23-2.86-.35-5.02s-.23-4.48-.35-6.92-.19-4.91-.27-7.38c-.04-2.47-.08-4.6-.08-6.38,0-6.11.08-11.28.27-15.65.15-4.33.39-8.15.62-11.4.23-3.25.43-6.11.62-8.58.19-2.47.27-4.91.27-7.27,0-.89-.19-1.62-.62-2.16-.43-.54-.97-1.04-1.7-1.43-.7-.39-1.51-.7-2.43-.93s-1.86-.5-2.78-.81c-2.32-.66-4.37-1.24-6.26-1.82-1.86-.58-3.48-1.2-4.83-1.97-1.35-.73-2.4-1.62-3.13-2.63-.73-1-1.12-2.24-1.12-3.71,0-.81.19-2.01.58-3.59.39-1.55.89-3.25,1.51-5.06s1.31-3.59,2.09-5.37c.77-1.78,1.51-3.28,2.2-4.52.46-.31,1.12-.46,1.89-.5.81,0,1.51,0,2.16.15.35,1.43.85,2.59,1.47,3.52s1.47,1.7,2.51,2.36c1.08.66,2.36,1.2,3.9,1.66,1.55.46,3.44,1,5.68,1.58,2.01.54,3.67,1.04,4.95,1.51,1.31.46,2.32.97,3.01,1.47s1.2,1.04,1.47,1.66c.27.58.39,1.24.39,1.93,0,.46-.08,1.28-.27,2.36-.19,1.08-.35,2.24-.54,3.52-.31,2.01-.62,4.44-.93,7.3-.31,2.86-.5,6.53-.5,10.94,0,6.22.27,12.37.85,18.47.54,6.11,1.24,11.94,2.09,17.51.35,2.47.66,4.83.97,6.99s.46,3.86.46,5.06-.12,2.01-.35,2.67-.62,1.31-1.16,2.05c-1.31,1.7-2.63,3.48-3.94,5.33-1.35,1.82-2.51,3.52-3.52,5.06-1.66.15-3.28.15-4.87,0"/>
  <path class="cls-1" d="M313.36,269.52h-36.94c-1.37,3.1-2.49,5.84-3.35,8.18-.86,2.39-1.58,4.52-2.08,6.45-.51,1.93-.86,3.66-1.07,5.28-.2,1.63-.25,3.2-.25,4.73,0,1.93.2,4.01.61,6.35.41,2.29,1.07,4.88,1.98,7.67.91,2.79,2.03,5.95,3.4,9.35,1.37,3.46,3,7.27,4.83,11.43.05.25.05.51,0,.76-.51,1.47-.97,2.9-1.37,4.22-.41,1.32-.76,2.64-1.12,3.91s-.66,2.54-.97,3.86-.66,2.74-1.02,4.27c-.05.25-.2.41-.36.51-.2.1-.36.15-.56.15-1.68-.05-3.86-.15-6.5-.3-2.69-.15-5.39-.25-8.18-.25-3.05,0-5.89.15-8.59.51-2.64.36-4.47,1.02-5.49,2.08-.66-.15-1.37-.3-2.03-.56s-1.22-.61-1.68-1.12c1.12-4.27,2.9-9.1,5.39-14.53.36-.86.86-1.63,1.52-2.34.66-.66,1.52-1.27,2.64-1.73s2.54-.86,4.22-1.17c1.73-.3,3.76-.51,6.2-.66-1.22-3.81-2.24-7.06-2.95-9.76-.71-2.69-1.27-4.98-1.63-6.96-.36-1.93-.61-3.61-.71-4.98-.1-1.37-.15-2.64-.15-3.81,0-1.47.15-3.15.46-4.98.3-1.83.81-4.01,1.52-6.5.71-2.49,1.68-5.34,2.95-8.64,1.22-3.25,2.79-7.11,4.68-11.48-1.93-.05-3.76-.2-5.54-.51-1.78-.25-3.35-.76-4.68-1.47-1.37-.71-2.49-1.68-3.3-2.9-.86-1.22-1.27-2.85-1.27-4.83,0-.56.1-1.42.3-2.59s.56-2.54.97-4.12c.46-1.58.97-3.35,1.52-5.28.61-1.93,1.27-3.96,1.98-6,.61-.3,1.32-.51,2.03-.66.76-.1,1.47-.15,2.13-.1.81,1.78,1.68,3.2,2.54,4.22.91,1.02,1.93,1.78,3.1,2.29,1.17.51,2.54.86,4.07,1.02s3.4.25,5.49.25h39.48c3.4,0,6.5.36,9.3,1.07,2.79.71,5.18,1.88,7.17,3.51,1.98,1.63,3.51,3.76,4.57,6.4,1.07,2.64,1.58,5.84,1.58,9.6,0,2.85-.15,5.64-.51,8.33-.36,2.69-.51,5.54-.51,8.54,0,5.79.3,11.64.97,17.43.66,5.79,1.37,11.33,2.08,16.57.36,2.59.71,4.98,1.02,7.11.3,2.19.46,3.86.46,5.08s-.1,2.13-.36,2.85c-.25.71-.66,1.42-1.22,2.19-1.37,1.78-2.64,3.56-3.76,5.34-1.17,1.78-2.24,3.56-3.3,5.44-1.73.2-3.46.2-5.13,0-.2-1.17-.41-2.9-.61-5.08-.2-2.24-.41-4.62-.61-7.17s-.36-5.13-.46-7.62c-.1-2.54-.2-4.73-.2-6.61,0-6.3,0-11.38.1-15.3.05-3.91.1-7.17.2-9.81.05-2.64.15-4.98.25-6.96.1-1.98.15-4.17.25-6.56.05-2.19-.1-4.12-.46-5.79-.36-1.68-1.07-3.1-2.13-4.27-1.07-1.12-2.49-2.03-4.22-2.64-1.78-.61-4.01-.91-6.76-.91"/>
  <g>
    <path class="cls-3" d="M380.05,351.9h-3.05c-1.66,3.56-4.83,11.21-9.51,23.03v13.18h4.29v.77h-13.02v-.77h3.83v-12.71l-9.74-23.53h-3.36v-.77h12.56v.77h-3.86l9.08,21.6c1.12-2.55,2.32-6.26,3.59-11.17,1.28-4.91,1.97-8.39,2.05-10.43h-3.25v-.77h10.4v.81Z"/>
    <path class="cls-3" d="M402.78,390.05h-.81v-1.16h-20.13v-.77h3.4v-11.9h-3.63v-.77h3.63v-23.57h-3.4v-.77h20.13v-1.04h.81v5.95h-.81v-1.55c-2.51-1.74-5.87-2.59-10.13-2.59h-1.7v23.57h.89c2.63,0,4.87-.31,6.76-.97v-1.86h.81v6.76h-.81v-1.82c-2.16-.89-4.41-1.35-6.76-1.35h-.89v11.9h1.31c4.52,0,8-.85,10.51-2.55v-1.66h.81v6.14Z"/>
    <path class="cls-3" d="M425.93,380.77c0,2.47-.89,4.56-2.71,6.22-1.78,1.66-4.02,2.47-6.69,2.47-2.94,0-5.45-.54-7.42-1.62v3.09h-.81v-9.43h.81v2.36c1,1.47,2.24,2.67,3.67,3.52,1.43.85,2.86,1.31,4.25,1.31s2.59-.5,3.48-1.51c.89-1,1.31-2.32,1.31-3.98s-.58-3.32-1.7-4.83-3.13-3.25-5.95-5.29c-3.36-2.43-5.56-4.37-6.57-5.84-1.24-1.82-1.86-3.83-1.86-6.03,0-3.01,1.04-5.56,3.09-7.57s4.6-3.05,7.69-3.05,5.45.58,7.5,1.74v-1.74h.81v8.54h-.81v-2.36c-.89-1.51-2.2-2.82-3.94-3.86-1.74-1.04-3.44-1.58-5.06-1.58-1.78,0-3.17.62-4.21,1.86s-1.55,2.86-1.55,4.95.54,3.79,1.58,5.29c1.08,1.47,3.17,3.36,6.3,5.6,3.48,2.51,5.72,4.41,6.69,5.64,1.39,1.78,2.09,3.83,2.09,6.07v.04Z"/>
    <path class="cls-3" d="M456.46,376.06h-3.59v12.1h3.4v.77h-11.71v-.77h3.44v-12.1h-10.13v12.1h3.4v.77h-11.67v-.77h3.4v-12.1c-1.08.15-2.2.5-3.4,1.04v-2.2c.93.23,2.05.35,3.4.39v-23.38h-3.4v-.77h11.67v.77h-3.4v23.38h10.13v-23.38h-3.44v-.77h11.71v.77h-3.4v23.38h3.59v.77Z"/>
    <path class="cls-3" d="M471.41,388.89h-11.67v-.77h3.4v-36.25h-3.4v-.77h11.67v.77h-3.4v36.25h3.4v.77Z"/>
  </g>
  <g>
    <path class="cls-3" d="M506.19,351.9h-3.05c-1.08,2.28-2.63,6.53-4.6,12.71-1,3.13-2.51,7.92-4.44,14.45l-2.9,10.43h-.73l-11.9-37.56h-3.17v-.77h12.68v.77h-4.21l8.97,28.79.62-2.2c3.21-11.52,5.06-20.37,5.56-26.59h-3.25v-.77h10.43v.77-.04Z"/>
    <path class="cls-3" d="M528.57,388.89h-11.13v-.77h3.25l-3.75-11.9h-11.05c-.66,1.55-1.2,3.48-1.7,5.87-.5,2.36-.73,4.41-.73,6.07h3.4v.77h-9.24v-.77h2.67c.89-1.74,1.74-3.79,2.59-6.18l2.01-5.76c-1.16,0-2.55.39-4.21,1.16l1-2.59c.81.43,2.01.62,3.48.66l8.42-24.35h.77l7.5,24.35h4.83v.77h-4.48l3.63,11.9h2.71v.77h.04ZM516.7,375.48l-5.06-16.35-5.49,16.35h10.55Z"/>
  </g>
  <path class="cls-3" d="M550.71,380.77c0,2.47-.89,4.56-2.71,6.22-1.78,1.66-4.02,2.47-6.69,2.47-2.94,0-5.45-.54-7.42-1.62v3.09h-.81v-9.43h.81v2.36c1,1.47,2.24,2.67,3.67,3.52,1.43.85,2.86,1.31,4.25,1.31s2.59-.5,3.48-1.51c.89-1,1.31-2.32,1.31-3.98s-.58-3.32-1.7-4.83-3.13-3.25-5.95-5.29c-3.36-2.43-5.56-4.37-6.57-5.84-1.24-1.82-1.86-3.83-1.86-6.03,0-3.01,1.04-5.56,3.09-7.57,2.05-2.01,4.6-3.05,7.69-3.05s5.45.58,7.5,1.74v-1.74h.81v8.54h-.81v-2.36c-.89-1.51-2.2-2.82-3.94-3.86-1.74-1.04-3.44-1.58-5.06-1.58-1.78,0-3.17.62-4.21,1.86s-1.55,2.86-1.55,4.95.54,3.79,1.58,5.29c1.08,1.47,3.17,3.36,6.3,5.6,3.48,2.51,5.72,4.41,6.69,5.64,1.39,1.78,2.09,3.83,2.09,6.07v.04Z"/>
  <g>
    <path class="cls-1" d="M118.08,401.87c0,8.54-1.93,16.58-5.76,24.08-3.86,7.5-9,13.29-15.42,17.35-6.03,3.83-13.6,5.76-22.72,5.76h-27.79v-1.89h8.35v-89.19h-8.35v-1.89h29.53c9.89,0,18.12,2.71,24.73,8.12,11.59,9.51,17.43,22.07,17.43,37.68h0ZM103.58,403.19c0-22.45-3.17-36.09-9.55-40.96-3.67-2.82-9.93-4.25-18.7-4.25h-8.46v89.19h7.3c11.52,0,19.36-2.94,23.53-8.81,3.94-5.56,5.87-17.31,5.87-35.21v.04Z"/>
    <path class="cls-1" d="M139.95,362.76c0,3.44-1.24,6.49-3.75,9.2-2.47,2.71-5.33,4.02-8.46,4.02-.7,0-1.55-.15-2.47-.46,3.9-.85,6.57-3.09,8-6.72h-1.04c-1.97,0-3.59-.66-4.95-1.93-1.35-1.31-2.01-2.94-2.01-4.87s.66-3.75,2.01-5.14c1.31-1.35,3.01-2.05,5.06-2.05s3.9.77,5.41,2.36c1.51,1.55,2.24,3.44,2.24,5.6h-.04Z"/>
  </g>
  <g>
    <path class="cls-1" d="M193.44,387.92h-5.06c-1.78,3.79-4.33,10.78-7.57,21.02-1.7,5.18-4.14,13.14-7.34,23.88l-4.83,17.24h-1.2l-19.67-62.1h-5.22v-1.28h20.95v1.28h-6.96l14.84,47.57,1-3.67c5.29-19.01,8.35-33.66,9.2-43.94h-5.37v-1.28h17.24v1.28h0Z"/>
    <path class="cls-1" d="M230.42,449.1h-18.4v-1.28h5.37l-6.18-19.67h-18.24c-1.04,2.51-1.97,5.76-2.82,9.7-.81,3.94-1.24,7.27-1.24,10.01h5.6v1.28h-15.26v-1.28h4.44c1.47-2.86,2.9-6.26,4.25-10.2l3.32-9.47c-1.89,0-4.21.62-6.96,1.89l1.66-4.25c1.35.7,3.28,1.04,5.76,1.12l13.91-40.23h1.28l12.41,40.23h8v1.28h-7.46l6.03,19.67h4.52v1.28-.08ZM210.83,426.88l-8.39-27.01-9.08,27.01h17.47Z"/>
  </g>
  <path class="cls-1" d="M275.56,444.89c-2.09,3.21-4.83,4.83-8.15,4.83s-5.76-1.12-7.19-3.32c-.46-.73-.73-1.51-.81-2.28-.08-.77-.15-3.17-.27-7.11-.04-3.36-.77-5.76-2.16-7.11s-3.79-2.05-7.15-2.05h-3.94v19.98h5.6v1.28h-19.28v-1.28h5.6v-19.98h-5.99v-1.28h5.99v-38.65h-5.6v-1.28h17.62c6.22,0,11.59,2.09,16.08,6.3,4.52,4.21,6.76,9.2,6.76,14.96,0,3.17-.77,6.18-2.28,9.08-1.55,2.9-3.59,5.26-6.26,7.11-2.2,1.58-4.91,2.71-8.15,3.4,4.06.77,6.96,2.4,8.73,4.83,1.78,2.43,2.63,6.14,2.55,11.09,0,2.01.08,3.25.27,3.71.19.46.7.7,1.55.7,2.01,0,3.83-1.24,5.45-3.71l1.04.81v-.04ZM263.38,409.1c0-8.23-.97-13.8-2.86-16.73-1.89-2.94-5.49-4.44-10.74-4.44h-3.94v38.65h3.94c5.02,0,8.19-.54,9.55-1.58,2.71-2.05,4.02-7.34,4.02-15.88h.04Z"/>
  <path class="cls-1" d="M332.44,392.79h-2.01v-6.49c-3.9-3.44-8.5-5.64-13.76-6.61v89.19h9.04v1.89h-30.14v-1.89h9.08v-89.19c-4.75.15-9.82,2.36-15.19,6.61v6.49h-2.01v-16.62h2.01v1.66h40.96v-1.66h2.01v16.62h0Z"/>
  <g>
    <path class="cls-1" d="M383.11,439.71c0,9.27-2.28,16.93-6.8,22.96-4.52,6.07-10.24,9.08-17.16,9.08-6.49,0-12.06-3.09-16.73-9.24-4.68-6.14-6.99-13.53-6.99-22.11,0-4.6.73-9.12,2.16-13.64,1.43-4.52,3.4-8.31,5.8-11.36,4.21-5.26,9.82-7.88,16.85-7.88,6.42,0,11.83,3.09,16.23,9.27,4.41,6.18,6.61,13.83,6.61,22.92h.04ZM373.48,436.61c0-11.09-.85-18.28-2.59-21.6-2.2-4.17-5.99-6.26-11.28-6.26-3.09,0-5.8.81-8.12,2.4-2.28,1.62-3.86,3.79-4.71,6.53-.46,1.58-.93,4.95-1.31,10.05s-.58,10.01-.58,14.65c0,11.01.85,18.24,2.51,21.68,2.13,4.29,6.11,6.42,11.94,6.42,6.22,0,10.24-2.63,12.02-7.84,1.43-4.21,2.13-12.91,2.13-26.05v.04Z"/>
    <path class="cls-1" d="M431.49,466.64c-2.09,3.21-4.83,4.83-8.15,4.83s-5.76-1.12-7.19-3.32c-.46-.73-.73-1.51-.81-2.28-.08-.77-.15-3.17-.27-7.11-.04-3.36-.77-5.76-2.16-7.11s-3.79-2.05-7.15-2.05h-3.94v19.98h5.6v1.28h-19.28v-1.28h5.6v-19.98h-5.99v-1.28h5.99v-38.65h-5.6v-1.28h17.62c6.22,0,11.59,2.09,16.08,6.3,4.48,4.21,6.76,9.2,6.76,14.96,0,3.17-.77,6.18-2.28,9.08-1.55,2.9-3.59,5.26-6.26,7.11-2.2,1.58-4.95,2.71-8.15,3.4,4.06.77,6.96,2.4,8.73,4.83,1.78,2.43,2.63,6.14,2.55,11.09,0,2.01.08,3.25.27,3.71.19.46.7.7,1.55.7,2.01,0,3.83-1.24,5.45-3.71l1.04.81v-.04ZM419.32,430.82c0-8.23-.97-13.8-2.86-16.77-1.89-2.94-5.49-4.41-10.74-4.41h-3.94v38.65h3.94c4.99,0,8.19-.54,9.55-1.58,2.71-2.05,4.02-7.34,4.02-15.88h.04Z"/>
    <path class="cls-1" d="M481.42,470.82h-18.43v-1.28h5.37l-6.18-19.67h-18.24c-1.04,2.51-1.97,5.76-2.82,9.7-.81,3.94-1.24,7.27-1.24,10.01h5.6v1.28h-15.26v-1.28h4.41c1.47-2.86,2.9-6.26,4.25-10.2l3.32-9.51c-1.89,0-4.21.62-6.96,1.89l1.66-4.25c1.35.7,3.28,1.04,5.76,1.12l13.91-40.23h1.28l12.41,40.23h8v1.28h-7.46l6.03,19.67h4.52v1.28l.08-.04ZM461.83,448.6l-8.39-27.01-9.08,27.01h17.47Z"/>
    <path class="cls-1" d="M527.33,449.56h-5.91v19.98h5.6v1.28h-19.36v-1.28h5.68v-19.98h-16.77v19.98h5.6v1.28h-19.28v-1.28h5.6v-19.98c-1.78.27-3.67.85-5.6,1.74v-3.63c1.55.39,3.4.58,5.6.62v-38.65h-5.6v-1.28h19.28v1.28h-5.6v38.65h16.77v-38.65h-5.68v-1.28h19.36v1.28h-5.6v38.65h5.91v1.28Z"/>
  </g>
  <g>
    <path class="cls-3" d="M184.51,508.53c1.12,0,2.05.39,2.86,1.16.77.77,1.2,1.74,1.2,2.86s-.39,2.05-1.2,2.86-1.74,1.2-2.86,1.2-2.05-.39-2.86-1.2-1.2-1.74-1.2-2.86.39-2.05,1.16-2.86c.77-.77,1.74-1.16,2.86-1.16h.04Z"/>
    <path class="cls-3" d="M226.63,511.93c0,3.71-.08,6.57-.19,8.54-.15,1.97-.39,2.98-.77,2.98h-15.57c-.5,0-.85-.85-1.04-2.55s-.31-4.14-.31-7.3c0-1.39.27-2.59.81-3.48.27-.39.58-.81.89-1.24-.62-.46-1.16-1.12-1.62-2.05-.46-.89-.7-2.16-.7-3.79,0-.93.23-1.89.73-2.9.39-.81.89-1.24,1.43-1.24.35,0,.66.39.93,1.12.27.73.89,1.12,1.82,1.12h8.31c2.16,0,3.67.97,4.48,2.86.54,1.24.81,3.09.81,5.49v2.43h0ZM224.39,512.86c0-1.47-.31-2.59-.97-3.32-.66-.73-1.74-1.12-3.28-1.12h-5.37c-.58,0-1.24.35-1.93,1.04-.89.89-1.31,2.01-1.31,3.4,0,.93.27,1.66.81,2.28.54.58,1.24.89,2.09.89h6.88c.5,0,.85.04,1.08.04.66,0,1.16-.15,1.43-.5.39-.46.58-1.35.58-2.71h0Z"/>
    <path class="cls-3" d="M244.02,507.1c0,2.13-.7,4.17-2.05,6.07-1.24,1.7-2.24,2.51-3.01,2.51-.43,0-.81-.12-1.12-.39-.31-.27-.39-.5-.19-.7.54-.58,1.12-1.16,1.7-1.74.73-.81,1.12-1.62,1.12-2.51,0-1.2-1.12-1.82-3.4-1.93-2.28-.08-3.4-1.66-3.4-4.75,0-.93.19-1.89.54-2.94s.85-1.55,1.51-1.55c.31,0,.62.35.93,1s.66,1,1,1h3.05c.43,0,.89.15,1.31.46,1.39.93,2.05,2.74,2.05,5.49l-.04-.04Z"/>
    <path class="cls-3" d="M267.87,509.27c0,1.82-.66,3.28-2.01,4.48-1.97,1.74-3.05,2.82-3.28,3.21-.23.39-.39.81-.46,1.24-.08.43-.15,1.08-.15,1.97v.7c0,1-.15,1.7-.43,2.09-.39.58-1.16.89-2.36.89-.97,0-1.62-.35-2.01-1-.39-.66-.58-1.55-.58-2.67,0-1.24.66-2.43,1.93-3.63.19-.19,1.51-1.16,3.98-2.98.85-.66,1.43-1.2,1.66-1.66.27-.46.39-1.08.39-1.86,0-.54-.15-.97-.43-1.2-.31-.23-.66-.39-1.08-.39h-6.69c-1.78,0-2.94-.46-3.44-1.39-.39-.7-.58-2.2-.58-4.44,0-1.55.15-2.82.43-3.75.35-.85.66-1.74,1-2.63,0-.35-.5-.7-1.51-1.08s-1.51-1.2-1.51-2.51c0-.73.23-1.47.7-2.24.46-.77,1.04-1.39,1.7-1.93.08.35.85.93,2.24,1.78s2.09,1.62,2.09,2.36c0,.39-.5,1.62-1.51,3.75-.5,1.04-.73,1.93-.73,2.63,0,.81.12,1.35.35,1.66s.77.46,1.66.46h7.96c.85,0,1.55.39,2.01,1.16.39.62.58,1.24.58,1.93v5.06h.08Z"/>
    <path class="cls-3" d="M299.67,505.17c0,.73-.23,2.01-.73,3.79-.62,2.28-1.39,4.25-2.4,5.84-2.4,3.98-3.9,6.42-4.6,7.3-.66.89-1.28,1.31-1.78,1.31h-9.16c-.5,0-.89.04-1.04.04-.35,0-.62-.12-.89-.35s-.77-1.78-1.51-4.64c-.73-2.86-1.12-4.87-1.12-5.99,0-1.2.19-2.16.58-2.94s.58-1.28.58-1.55c-.54-.27-1.12-.58-1.66-.89-.77-.7-1.16-1.93-1.16-3.67,0-1,.12-1.89.39-2.67s.7-1.31,1.28-1.62c.35-.19.58,0,.77.62.19.58.43.97.77,1.08.85.23,1.74.46,2.63.7.81.39,1.2,1.35,1.2,2.9,0,2.16-.46,3.25-1.39,3.25-.39.31-.7.81-1,1.55-.31.73-.46,1.39-.46,2.01,0,1.28.27,2.4.81,3.4.66,1.2,1.55,1.78,2.67,1.78.62-.35,1.35-1.66,2.24-3.98.85-2.32,1.31-3.86,1.31-4.64-.97-.39-1.58-.85-1.82-1.31-.39-.7-.54-1.74-.54-3.05,0-1,.15-1.89.43-2.71.27-.81.7-1.28,1.16-1.43.39-.19.7.04.89.7.19.66.43,1,.62,1.04.7.08,1.28.12,1.7.19,1.43.23,2.16,1.35,2.16,3.4,0,1.55-.15,2.51-.46,2.9-.19.19-.73.39-1.62.5-.08.23-.58,1.58-1.51,4.1-.93,2.51-1.39,3.86-1.39,4.1s.15.35.43.43.62.08,1.04.08h.7c2.4,0,4.29-.66,5.64-1.97,1.47-1.43,2.36-3.67,2.67-6.76-.81-.27-1.58-.54-2.36-.81-.81-.58-1.2-1.82-1.2-3.67,0-.93.08-1.74.27-2.51.19-.77.54-1.24,1.12-1.47.43-.19.73,0,.93.62.19.58.46.97.77,1.12.08,0,.81.12,2.13.23s1.97,1.35,1.97,3.67h-.04Z"/>
    <path class="cls-3" d="M315.86,520.13c0,.89-.08,1.51-.27,1.89-.19.35-.66.77-1.39,1.28-.19.08-.43.19-.66.31-.27.12-.46.19-.58.19-.19,0-.27-.12-.27-.31v-12.87c0-1.16-.62-1.86-1.89-2.13-2.78-.54-4.17-2.32-4.17-5.33,0-1.04.27-1.97.77-2.74.5-.81,1-1.2,1.51-1.2.23,0,.43.31.54.97.12.66.58.97,1.43.97h1.93c.66,0,1.28.27,1.89.81.62.54.93,1.2.93,1.93l.27,16.23h-.04Z"/>
    <path class="cls-3" d="M339.9,520.63c0,.73-.19,1.28-.54,1.66-.12.12-.58.46-1.39,1-.46.35-.81.5-1.04.5s-.39-.27-.39-.77v-11.05c0-1.12-.27-2.01-.77-2.63s-1.31-.93-2.36-.93h-7.3c-.89,0-1.58-.35-2.13-1.08-.5-.73-.77-1.86-.77-3.4,0-1.12.12-2.09.31-2.9.35-1.24.89-1.89,1.66-1.89.31,0,.58.31.89.97.27.66.81.97,1.66.97h7.61c1.55,0,2.63.58,3.28,1.74.5.85.73,2.09.73,3.67v3.83l.5,10.28.04.04Z"/>
    <path class="cls-3" d="M357.21,507.1c0,2.13-.7,4.17-2.05,6.07-1.24,1.7-2.24,2.51-3.01,2.51-.43,0-.81-.12-1.12-.39-.31-.27-.39-.5-.19-.7.54-.58,1.12-1.16,1.7-1.74.73-.81,1.08-1.62,1.08-2.51,0-1.2-1.12-1.82-3.4-1.93-2.28-.08-3.4-1.66-3.4-4.75,0-.93.15-1.89.54-2.94.35-1.04.85-1.55,1.51-1.55.31,0,.62.35.93,1s.66,1,1,1h3.05c.43,0,.89.15,1.31.46,1.39.93,2.05,2.74,2.05,5.49v-.04Z"/>
    <path class="cls-3" d="M381.99,506.14c1.28,0,2.4.46,3.32,1.35.93.93,1.35,2.01,1.35,3.32s-.46,2.4-1.35,3.32c-.93.93-2.01,1.35-3.32,1.35s-2.4-.46-3.32-1.35-1.35-2.01-1.35-3.32.46-2.4,1.35-3.32,2.01-1.35,3.32-1.35Z"/>
  </g>
  <line class="cls-2" x1="49.98" y1="489.06" x2="526.6" y2="489.06"/>
  <line class="cls-2" x1="49.98" y1="531.57" x2="526.6" y2="531.57"/>
</svg>